<?xml version="1.0" standalone="no"?>
<!DOCTYPE svg PUBLIC "-//W3C//DTD SVG 20010904//EN"
 "http://www.w3.org/TR/2001/REC-SVG-20010904/DTD/svg10.dtd">
<svg version="1.0" xmlns="http://www.w3.org/2000/svg"
 width="200.000000pt" height="200.000000pt" viewBox="0 0 200.000000 200.000000"
 preserveAspectRatio="xMidYMid meet">
<metadata>
Created by potrace 1.11, written by Peter Selinger 2001-2013
</metadata>
<g transform="translate(0.000000,200.000000) scale(0.100000,-0.100000)"
fill="#000000" stroke="none">
<path d="M243 1893 c-17 -6 -16 -76 2 -163 22 -105 52 -148 91 -133 18 7 15
33 -9 98 -9 22 -18 59 -22 82 l-6 42 43 -16 c35 -14 82 -17 243 -18 217 -1
213 -1 328 -69 l47 -28 68 35 c116 60 155 67 331 62 119 -4 169 -1 211 10 79
21 82 20 76 -17 -18 -104 -19 -115 -2 -121 41 -16 60 20 71 130 11 109 -4 123
-92 91 -51 -19 -81 -22 -258 -24 -110 -1 -211 -4 -224 -8 -14 -3 -59 -22 -100
-41 l-75 -36 -86 43 -85 43 -188 -2 c-176 -2 -193 -1 -265 22 -82 26 -80 26
-99 18z"/>
<path d="M562 1664 c-106 -27 -176 -84 -224 -182 -29 -59 -33 -76 -33 -148 1
-67 6 -90 28 -136 36 -73 98 -134 171 -169 53 -25 69 -28 145 -26 103 4 160
27 228 94 69 69 98 139 97 243 0 73 -4 92 -27 138 -78 150 -233 225 -385 186z
m195 -85 c205 -99 200 -399 -9 -489 -99 -43 -226 -20 -296 53 -120 126 -103
320 37 415 79 54 183 62 268 21z"/>
<path d="M520 1525 c-72 -33 -103 -86 -59 -100 14 -5 31 0 51 15 64 47 159 32
198 -32 51 -85 -4 -198 -99 -203 -76 -5 -126 34 -146 112 -14 54 -45 71 -65
34 -22 -42 26 -145 85 -181 107 -66 230 -35 292 75 40 72 22 178 -42 240 -49
49 -152 68 -215 40z"/>
<path d="M584 1435 c-23 -16 -10 -51 21 -59 16 -4 25 -14 25 -25 0 -26 41 -36
58 -14 35 47 -56 134 -104 98z"/>
<path d="M1371 1668 c-184 -32 -308 -222 -266 -404 23 -101 99 -194 194 -237
36 -17 66 -22 137 -22 82 0 96 3 151 31 l61 31 13 -61 c18 -83 15 -217 -5
-296 -110 -418 -575 -622 -955 -420 -69 37 -188 142 -220 194 l-21 33 20 58
c53 153 165 264 326 320 104 37 126 34 161 -20 39 -62 61 -60 104 10 30 50 35
54 63 49 164 -27 298 -109 377 -229 37 -55 48 -65 69 -63 36 4 36 30 -3 90
-79 123 -217 219 -358 252 -69 17 -77 22 -61 38 7 7 12 18 12 26 0 18 -136
152 -154 152 -7 0 -46 -31 -85 -70 l-72 -69 15 -35 14 -34 -81 -26 c-163 -51
-296 -161 -362 -297 -36 -75 -32 -76 -60 6 -25 71 -34 204 -21 297 6 42 -11
63 -43 53 -26 -8 -36 -84 -28 -210 9 -160 79 -322 192 -443 49 -53 53 -60 38
-74 -14 -14 -13 -23 7 -91 23 -76 36 -92 66 -80 17 6 16 41 -4 116 -7 28 -7
37 1 34 7 -2 21 -34 32 -71 22 -72 45 -97 71 -75 10 8 12 22 8 47 -6 32 -5 34
12 27 102 -42 174 -57 279 -59 125 -1 169 5 251 34 74 25 76 25 64 -6 -15 -40
-12 -62 11 -69 29 -10 43 9 64 85 16 58 28 79 46 80 4 0 -2 -30 -12 -67 -21
-73 -18 -103 10 -103 27 0 37 17 57 92 15 56 16 69 4 83 -7 9 -20 13 -29 10
-9 -3 10 17 42 45 107 96 181 220 216 361 32 129 31 253 -4 376 -15 52 -15 52
17 114 31 58 33 70 33 158 0 85 -3 102 -27 146 -72 136 -219 209 -367 183z
m174 -87 c174 -77 211 -309 70 -446 -41 -40 -118 -67 -189 -66 -186 2 -311
193 -240 367 27 66 63 108 119 137 78 40 161 43 240 8z m-487 -504 l32 -33
-36 -58 c-20 -31 -40 -54 -44 -49 -4 4 -22 30 -38 58 l-31 50 31 32 c18 18 37
33 43 33 6 0 25 -15 43 -33z"/>
<path d="M1348 1531 c-38 -12 -88 -50 -88 -65 0 -8 7 -19 16 -26 13 -11 23
-10 60 8 24 12 58 22 75 22 134 0 179 -195 57 -253 -86 -41 -182 13 -194 109
-6 46 -11 54 -34 54 -26 0 -34 -17 -31 -65 7 -122 146 -211 265 -170 55 19
111 78 126 131 37 130 -47 251 -179 260 -25 2 -58 -1 -73 -5z"/>
<path d="M1395 1434 c-22 -22 -19 -33 13 -51 16 -9 33 -26 38 -37 12 -28 40
-32 53 -8 30 55 -61 138 -104 96z"/>
<path d="M422 298 c-16 -16 -15 -24 9 -101 21 -69 42 -88 68 -62 14 13 13 22
-3 82 -24 91 -43 112 -74 81z"/>
<path d="M1567 276 c-7 -8 -22 -44 -32 -81 -16 -62 -17 -68 -1 -83 27 -27 49
-3 70 76 15 58 16 75 6 87 -15 19 -25 19 -43 1z"/>
</g>
</svg>
